<svg width="32" height="32" fill="none" xmlns="http://www.w3.org/2000/svg"><path d="M27.023 11.546c-.162.126-3.023 1.742-3.023 5.335 0 4.155 3.641 5.625 3.75 5.662-.017.09-.578 2.013-1.92 3.974-1.196 1.724-2.445 3.447-4.345 3.447s-2.39-1.106-4.583-1.106c-2.138 0-2.898 1.142-4.636 1.142-1.739 0-2.951-1.596-4.346-3.556C6.305 24.142 5 20.566 5 17.172c0-5.444 3.532-8.33 7.009-8.33 1.847 0 3.386 1.214 4.546 1.214 1.104 0 2.826-1.288 4.927-1.288.796 0 3.658.073 5.541 2.778Zm-6.539-5.082c.87-1.034 1.484-2.467 1.484-3.901 0-.199-.017-.4-.053-.563-1.414.053-3.096.944-4.11 2.123-.797.907-1.54 2.34-1.54 3.794 0 .218.036.437.053.507.09.017.234.036.38.036 1.268 0 2.864-.851 3.786-1.996Z" fill="#1D1D21"/></svg>