<svg width="32" height="32" fill="none" xmlns="http://www.w3.org/2000/svg"><path d="M15.814 8.842c0 .092-.096.092-.096.092h-.095c-.096 0-.096-.092-.191-.185 0 0-.096-.093-.096-.185 0-.093 0-.093.096-.093l.19.093c.096.092.192.185.192.278Zm-1.719-.927c0-.464-.19-.742-.477-.742 0 0 0 .093-.095.093v.185h.286c0 .186.096.278.096.464h.19Zm3.341-.464c.191 0 .287.186.382.464h.191c-.095-.093-.095-.186-.095-.278 0-.093 0-.186-.096-.279-.095-.092-.19-.185-.286-.185 0 0-.096.093-.19.093 0 .092.095.092.095.185Zm-2.863 1.483c-.096 0-.096 0-.096-.092 0-.093 0-.186.096-.278.19 0 .286-.093.286-.093.096 0 .096.093.096.093 0 .092-.096.185-.287.37h-.095Zm-1.05-.092c-.382-.186-.477-.464-.477-.927 0-.278 0-.464.19-.65a.527.527 0 0 1 .478-.277c.19 0 .286.092.477.278.095.278.19.556.19.834v.185h.096v-.092c.096 0 .096-.186.096-.556 0-.279 0-.557-.191-.835-.191-.278-.382-.463-.764-.463a.717.717 0 0 0-.668.463c-.19.371-.229.65-.229 1.113 0 .37.134.741.515 1.112.096-.093.191-.093.287-.185Zm11.932 13.071c.095 0 .095-.037.095-.12 0-.204-.095-.445-.381-.714-.287-.278-.764-.454-1.337-.529-.095-.009-.19-.009-.19-.009-.096-.018-.096-.018-.192-.018-.095-.01-.286-.028-.381-.047a7.176 7.176 0 0 0 .381-2.29c0-.927-.19-1.576-.572-2.132-.382-.556-.764-.834-1.241-.927-.096.093-.096.093-.096.186.477.185.955.556 1.241 1.112.287.649.382 1.205.382 1.854 0 .52-.096 1.289-.477 2.271-.382.149-.764.492-1.05 1.03 0 .083 0 .13.095.13 0 0 .096-.084.191-.242.19-.157.286-.315.477-.473.287-.157.478-.24.764-.24.477 0 .954.064 1.24.194.383.12.574.25.67.399.095.139.19.269.285.39 0 .12.096.175.096.175ZM16.673 8.471c-.096-.093-.096-.278-.096-.464 0-.37 0-.556.191-.834.191-.185.382-.278.573-.278.286 0 .477.185.668.37.096.279.191.464.191.742 0 .464-.19.742-.573.835 0 0 .096.092.191.092.191 0 .287.093.478.186.095-.556.19-.927.19-1.39 0-.557-.095-.928-.286-1.206-.286-.278-.573-.37-.954-.37-.287 0-.573.092-.86.277-.19.278-.286.464-.286.742 0 .464.096.834.287 1.205.095 0 .19.093.286.093Zm1.145 1.483c-1.24.835-2.195 1.205-2.959 1.205-.668 0-1.336-.278-1.909-.741.096.185.191.37.286.463l.573.556c.382.371.86.557 1.337.557.668 0 1.431-.371 2.386-1.02l.86-.556c.19-.186.38-.371.38-.65 0-.092 0-.185-.095-.185-.095-.185-.572-.463-1.527-.741-.859-.371-1.527-.557-1.909-.557-.286 0-.764.186-1.432.557-.573.37-.954.741-.954 1.112 0 0 .095.093.19.278.573.464 1.146.742 1.719.742.763 0 1.718-.37 2.959-1.298v.185c.095 0 .095.093.095.093Zm2.196 18.727c.382.697 1.05 1.047 1.814 1.047.19 0 .381-.027.572-.083.191-.037.382-.102.478-.176.095-.065.19-.13.286-.204.19-.065.19-.111.286-.158l1.623-1.363a6.45 6.45 0 0 1 1.241-.778c.382-.223.764-.371.955-.454.286-.075.477-.186.668-.334a.939.939 0 0 0 .19-.538c0-.269-.19-.473-.381-.621a1.958 1.958 0 0 0-.573-.315c-.19-.065-.382-.213-.668-.464a2.469 2.469 0 0 1-.477-1.01l-.096-.538c-.095-.25-.095-.436-.19-.538 0-.027 0-.037-.096-.037a.526.526 0 0 0-.382.241c-.19.158-.382.334-.573.52-.095.185-.382.352-.572.51-.287.157-.573.24-.764.24-.764 0-1.146-.204-1.432-.602-.19-.297-.286-.64-.382-1.03-.19-.157-.286-.24-.477-.24-.477 0-.668.482-.668 1.455v2.883c0 .084-.096.27-.096.556-.095.288-.095.614-.095.983l-.191 1.03v.018Zm-13.841-.493c.887.126 1.909.396 3.064.807 1.155.408 1.861.621 2.119.621.668 0 1.222-.287 1.68-.843.095-.18.095-.39.095-.634 0-.876-.544-1.983-1.632-3.328l-.649-.843a8.729 8.729 0 0 1-.506-.807c-.2-.362-.382-.64-.525-.834-.124-.214-.324-.427-.582-.64a1.982 1.982 0 0 0-.85-.426c-.4.074-.678.204-.811.38-.134.176-.21.37-.23.575-.028.194-.085.324-.18.389-.096.055-.258.102-.478.148-.048 0-.134 0-.258.01h-.257c-.506 0-.85.055-1.031.148a1.338 1.338 0 0 0-.363.899c0 .148.038.399.114.75.077.344.115.622.115.817 0 .38-.115.76-.353 1.14-.239.399-.363.695-.363.907.096.36.726.613 1.88.76v.004Zm3.178-8.43c0-.64.172-1.344.525-2.179.344-.834.688-1.39 1.022-1.761-.02-.093-.067-.093-.143-.093l-.096-.093c-.277.279-.61.928-1.012 1.854-.4.835-.61 1.604-.61 2.17 0 .417.104.779.295 1.094.21.306.716.75 1.518 1.316l1.012.64c1.079.908 1.651 1.539 1.651 1.91 0 .194-.095.389-.382.602a.913.913 0 0 1-.668.334c-.019 0-.028.018-.028.065 0 .01.095.194.295.556.401.529 1.26.788 2.406.788 2.1 0 3.723-.834 4.964-2.503 0-.463 0-.75-.096-.871v-.343c0-.603.096-1.057.287-1.354.19-.297.381-.436.668-.436.19 0 .382.065.573.204.095-.713.095-1.335.095-1.89 0-.845 0-1.54-.19-2.189a4.792 4.792 0 0 0-.478-1.39l-.573-.835c-.19-.278-.286-.556-.477-.834-.096-.37-.191-.649-.191-1.112-.286-.464-.477-.928-.764-1.391-.19-.464-.381-.927-.572-1.298l-.86.649c-.954.649-1.718.927-2.386.927-.573 0-1.05-.093-1.336-.463l-.573-.464c0 .278-.096.649-.287 1.02l-.6 1.112c-.268.65-.411 1.02-.44 1.298-.038.185-.067.37-.086.37l-.716 1.392c-.773 1.39-1.164 2.679-1.164 3.745 0 .213.019.436.057.658-.43-.287-.64-.686-.64-1.205Zm6.835 8.77c-1.24 0-2.195.163-2.864.487v-.028c-.477.556-1.011.843-1.756.843-.468 0-1.203-.176-2.196-.528a26.518 26.518 0 0 0-2.663-.758 5.858 5.858 0 0 0-.525-.096 20.532 20.532 0 0 1-.735-.127c-.2-.042-.43-.105-.678-.19a1.694 1.694 0 0 1-.572-.285.518.518 0 0 1-.197-.395c0-.149.032-.307.097-.476.061-.102.128-.204.195-.297.067-.102.124-.194.162-.287.058-.083.096-.167.134-.26.038-.083.076-.166.095-.268.02-.093.039-.186.039-.279 0-.092-.039-.37-.115-.862-.076-.482-.114-.788-.114-.918 0-.407.095-.732.305-.964.21-.232.41-.352.62-.352h1.098c.086 0 .22-.046.42-.158.067-.148.124-.268.163-.38.047-.11.066-.194.085-.231.02-.056.039-.112.058-.158a1.28 1.28 0 0 1 .152-.213.55.55 0 0 1-.114-.362c0-.102 0-.195.019-.25 0-.334.162-.807.506-1.428l.334-.584c.277-.5.487-.871.64-1.242.162-.37.334-.927.525-1.669.152-.649.515-1.298 1.088-1.947l.716-.834c.496-.556.82-1.02 1.002-1.39.181-.371.277-.835.277-1.206 0-.185-.048-.741-.153-1.668a26.744 26.744 0 0 1-.143-2.689c0-.649.057-1.112.181-1.576.124-.463.344-.927.668-1.298.287-.37.669-.741 1.241-.927.573-.185 1.241-.278 2.005-.278.286 0 .573 0 .86.093.285 0 .667.092 1.145.278.382.185.763.37 1.05.649.381.278.668.741.954 1.205.191.556.382 1.112.477 1.854.096.464.096.927.191 1.576 0 .556.096.927.096 1.205.095.278.095.65.19 1.113.096.37.192.741.383 1.02.19.37.381.741.668 1.112.286.463.668.927 1.05 1.483.859.927 1.527 1.947 1.909 2.967.477.927.764 2.132.764 3.42 0 .64-.096 1.261-.287 1.864.191 0 .287.074.382.204.096.13.191.408.287.844l.095.686c.095.204.19.398.477.565.191.167.382.306.668.417.191.093.478.223.669.39.19.185.286.38.286.584 0 .315-.096.547-.286.714-.191.185-.382.315-.669.398-.19.093-.572.278-1.145.54-.477.274-.955.607-1.432 1.001l-.954.789a5.278 5.278 0 0 1-1.05.779c-.287.167-.669.25-1.05.25l-.669-.074c-.763-.195-1.24-.566-1.527-1.131-1.527-.18-2.768-.269-3.532-.269" fill="#1D1D21"/></svg>