<svg width="32" height="32" fill="none" xmlns="http://www.w3.org/2000/svg"><path d="M17.41 11.29v-.231l-.716.049c-.203.013-.356.056-.459.129a.355.355 0 0 0-.153.305c0 .127.05.228.152.303a.666.666 0 0 0 .408.113c.108 0 .21-.017.304-.05a.759.759 0 0 0 .245-.139.623.623 0 0 0 .22-.48ZM16 2C8.188 2 2 8.188 2 16c0 7.813 6.188 14 14 14s14-6.187 14-14c0-7.812-6.187-14-14-14Zm2.718 8.298c.066-.185.159-.345.28-.477.12-.132.265-.234.435-.306.17-.071.36-.107.569-.107.188 0 .358.029.509.085.152.056.281.131.39.226a1.082 1.082 0 0 1 .372.735h-.562a.723.723 0 0 0-.076-.217.595.595 0 0 0-.144-.174.677.677 0 0 0-.21-.116.822.822 0 0 0-.273-.042.716.716 0 0 0-.573.276.965.965 0 0 0-.16.32 1.436 1.436 0 0 0-.058.42c0 .16.019.303.057.428a.924.924 0 0 0 .162.32c.07.086.154.153.252.2.098.045.206.069.323.069a.767.767 0 0 0 .47-.136c.122-.09.2-.223.236-.397h.563a1.083 1.083 0 0 1-.395.745c-.11.09-.238.16-.387.209a1.568 1.568 0 0 1-.489.073c-.21 0-.4-.035-.57-.104-.17-.07-.317-.17-.439-.3a1.345 1.345 0 0 1-.281-.476 1.882 1.882 0 0 1-.1-.631 1.819 1.819 0 0 1 .099-.623Zm-7.998-.851h.563v.5h.011a.832.832 0 0 1 .326-.39.877.877 0 0 1 .24-.106c.086-.025.178-.037.274-.037.206 0 .381.05.523.148.142.099.243.24.303.425h.014a.886.886 0 0 1 .15-.239.955.955 0 0 1 .473-.295 1.12 1.12 0 0 1 .3-.039c.146 0 .277.023.396.07.119.046.22.111.304.195.085.085.15.187.195.307.045.12.068.254.068.401v2.011h-.587v-1.87c0-.193-.05-.344-.15-.45-.1-.106-.242-.16-.426-.16a.638.638 0 0 0-.25.049.569.569 0 0 0-.321.338.712.712 0 0 0-.047.262v1.832H12.5v-1.92a.642.642 0 0 0-.04-.23.49.49 0 0 0-.29-.29.665.665 0 0 0-.487.011.595.595 0 0 0-.328.352c-.03.08-.078.17-.078.266v1.81h-.556V9.447Zm1.278 14.127c-2.581 0-4.2-1.793-4.2-4.655s1.619-4.662 4.2-4.662c2.58 0 4.193 1.8 4.193 4.662 0 2.861-1.613 4.655-4.193 4.655Zm4.778-11.183a1.236 1.236 0 0 1-.696-.026.93.93 0 0 1-.315-.177.793.793 0 0 1-.205-.276.857.857 0 0 1-.073-.36c0-.26.096-.462.289-.607.193-.146.472-.231.839-.255l.796-.046v-.228c0-.17-.054-.3-.162-.388-.108-.089-.26-.133-.458-.133-.08 0-.155.01-.224.03a.614.614 0 0 0-.182.085.49.49 0 0 0-.2.306h-.553a.783.783 0 0 1 .097-.361.931.931 0 0 1 .247-.288c.105-.082.227-.145.369-.19.142-.046.295-.069.462-.069.18 0 .342.022.488.068.145.046.27.11.373.195a.864.864 0 0 1 .24.304.923.923 0 0 1 .084.398v2.025h-.562v-.492h-.014a.886.886 0 0 1-.159.216 1.02 1.02 0 0 1-.481.269Zm3.713 11.183c-1.968 0-3.306-1.03-3.4-2.65h1.282c.1.926.994 1.538 2.218 1.538 1.175 0 2.019-.612 2.019-1.45 0-.724-.513-1.162-1.7-1.462l-1.156-.287c-1.662-.412-2.418-1.169-2.418-2.412 0-1.531 1.337-2.594 3.243-2.594 1.862 0 3.162 1.069 3.212 2.606H22.52c-.087-.925-.843-1.494-1.968-1.494-1.12 0-1.894.575-1.894 1.406 0 .656.487 1.044 1.675 1.344l.975.243c1.856.45 2.618 1.182 2.618 2.494 0 1.674-1.325 2.718-3.437 2.718Zm-8.491-8.168c-1.769 0-2.875 1.356-2.875 3.512 0 2.15 1.106 3.506 2.875 3.506 1.762 0 2.874-1.356 2.874-3.506 0-2.156-1.112-3.512-2.874-3.512Z" fill="#1D1D21"/></svg>