<svg width="32" height="32" fill="none" xmlns="http://www.w3.org/2000/svg"><path d="M2.13 7.648c-.7.687-1.535-.23-.574-1.098a5.671 5.671 0 0 1 3.851-1.549 5.95 5.95 0 0 1 4.107 1.534c.676.607-.045 1.294-.5.963-.82-.572-1.61-1.359-3.532-1.359a4.344 4.344 0 0 0-3.351 1.51Z" fill="#1D1D21"/><path d="M3.066 9.794c-.5.592-1.115-.196-.415-.943a3.858 3.858 0 0 1 2.806-1.323A3.994 3.994 0 0 1 8.46 8.84c.5.502-.035 1.108-.385.823-.6-.502-1.17-1.159-2.572-1.159a3.046 3.046 0 0 0-2.436 1.289Z" fill="#1D1D21"/><path d="M3.516 11.57c-.225-.226-.145-.582.21-.943a2.501 2.501 0 0 1 2.883-.54c.315.15.596.365.824.63a.572.572 0 0 1 .09.852c-.425.426-.86-.707-2-.707-1.141 0-1.501 1.214-2.007.707ZM29.58 19.085H6.227v-5.831a.723.723 0 0 0-.713-.826.719.719 0 0 0-.713.826v5.831H2.416A1.414 1.414 0 0 0 1 20.504v6.061a1.422 1.422 0 0 0 .872 1.32c.172.072.357.11.544.11h27.163A1.42 1.42 0 0 0 31 26.575v-6.071a1.425 1.425 0 0 0-1.42-1.419ZM4.566 25.668a.864.864 0 0 1-.855-1.033.869.869 0 0 1 .68-.685.864.864 0 0 1 1.035.85.864.864 0 0 1-.86.868Zm2.716 0a.864.864 0 0 1-.849-1.037.868.868 0 0 1 1.18-.632.866.866 0 0 1 .535.802.865.865 0 0 1-.89.867h.024Zm2.721 0a.864.864 0 0 1-.848-1.037.868.868 0 0 1 1.18-.632.866.866 0 0 1 .534.802.866.866 0 0 1-.55.81.859.859 0 0 1-.34.057h.024Zm2.722 0a.864.864 0 0 1-.871-1.024.868.868 0 0 1 1.177-.646.865.865 0 0 1 .54.803.863.863 0 0 1-.871.867h.025Zm14.967-2.572a.864.864 0 0 1-.882-1.017.869.869 0 0 1 .672-.698.863.863 0 0 1 1.046.848.864.864 0 0 1-.86.867h.024Z" fill="#1D1D21"/></svg>